<svg width="260" height="37" viewBox="0 0 260 37" fill="none" xmlns="http://www.w3.org/2000/svg">
<g filter="url(#filter0_i_64_21)">
<path d="M27.0789 22.128C27.0789 23.088 27.0149 23.952 26.8869 24.72H7.44688C7.60688 26.64 8.27888 28.144 9.46288 29.232C10.6469 30.32 12.1029 30.864 13.8309 30.864C16.3269 30.864 18.1029 29.792 19.1589 27.648H26.4069C25.6389 30.208 24.1669 32.32 21.9909 33.984C19.8149 35.616 17.1429 36.432 13.9749 36.432C11.4149 36.432 9.11088 35.872 7.06288 34.752C5.04688 33.6 3.46288 31.984 2.31088 29.904C1.19088 27.824 0.630875 25.424 0.630875 22.704C0.630875 19.952 1.19088 17.536 2.31088 15.456C3.43088 13.376 4.99888 11.776 7.01488 10.656C9.03088 9.536 11.3509 8.976 13.9749 8.976C16.5029 8.976 18.7589 9.52 20.7429 10.608C22.7589 11.696 24.3109 13.248 25.3989 15.264C26.5189 17.248 27.0789 19.536 27.0789 22.128ZM20.1189 20.208C20.0869 18.48 19.4629 17.104 18.2469 16.08C17.0309 15.024 15.5429 14.496 13.7829 14.496C12.1189 14.496 10.7109 15.008 9.55888 16.032C8.43888 17.024 7.75088 18.416 7.49488 20.208H20.1189ZM30.2559 22.704C30.2559 19.952 30.8159 17.552 31.9359 15.504C33.0559 13.424 34.6079 11.824 36.5919 10.704C38.5759 9.552 40.8479 8.976 43.4079 8.976C46.7039 8.976 49.4239 9.808 51.5679 11.472C53.7439 13.104 55.1999 15.408 55.9359 18.384H48.6879C48.3039 17.232 47.6479 16.336 46.7199 15.696C45.8239 15.024 44.7039 14.688 43.3599 14.688C41.4399 14.688 39.9199 15.392 38.7999 16.8C37.6799 18.176 37.1199 20.144 37.1199 22.704C37.1199 25.232 37.6799 27.2 38.7999 28.608C39.9199 29.984 41.4399 30.672 43.3599 30.672C46.0799 30.672 47.8559 29.456 48.6879 27.024H55.9359C55.1999 29.904 53.7439 32.192 51.5679 33.888C49.3919 35.584 46.6719 36.432 43.4079 36.432C40.8479 36.432 38.5759 35.872 36.5919 34.752C34.6079 33.6 33.0559 32 31.9359 29.952C30.8159 27.872 30.2559 25.456 30.2559 22.704ZM72.6669 36.432C70.1069 36.432 67.8029 35.872 65.7549 34.752C63.7069 33.6 62.0909 31.984 60.9069 29.904C59.7549 27.824 59.1789 25.424 59.1789 22.704C59.1789 19.984 59.7709 17.584 60.9549 15.504C62.1709 13.424 63.8189 11.824 65.8989 10.704C67.9789 9.552 70.2989 8.976 72.8589 8.976C75.4189 8.976 77.7389 9.552 79.8189 10.704C81.8989 11.824 83.5309 13.424 84.7149 15.504C85.9309 17.584 86.5389 19.984 86.5389 22.704C86.5389 25.424 85.9149 27.824 84.6669 29.904C83.4509 31.984 81.7869 33.6 79.6749 34.752C77.5949 35.872 75.2589 36.432 72.6669 36.432ZM72.6669 30.576C73.8829 30.576 75.0189 30.288 76.0749 29.712C77.1629 29.104 78.0269 28.208 78.6669 27.024C79.3069 25.84 79.6269 24.4 79.6269 22.704C79.6269 20.176 78.9549 18.24 77.6109 16.896C76.2989 15.52 74.6829 14.832 72.7629 14.832C70.8429 14.832 69.2269 15.52 67.9149 16.896C66.6349 18.24 65.9949 20.176 65.9949 22.704C65.9949 25.232 66.6189 27.184 67.8669 28.56C69.1469 29.904 70.7469 30.576 72.6669 30.576ZM89.7402 22.608C89.7402 19.92 90.2682 17.536 91.3242 15.456C92.4123 13.376 93.8843 11.776 95.7403 10.656C97.5963 9.536 99.6603 8.976 101.932 8.976C103.66 8.976 105.308 9.36 106.876 10.128C108.444 10.864 109.692 11.856 110.62 13.104V0.48H117.436V36H110.62V32.064C109.788 33.376 108.62 34.432 107.116 35.232C105.612 36.032 103.868 36.432 101.884 36.432C99.6443 36.432 97.5963 35.856 95.7403 34.704C93.8843 33.552 92.4123 31.936 91.3242 29.856C90.2682 27.744 89.7402 25.328 89.7402 22.608ZM110.668 22.704C110.668 21.072 110.348 19.68 109.708 18.528C109.068 17.344 108.204 16.448 107.116 15.84C106.028 15.2 104.86 14.88 103.612 14.88C102.364 14.88 101.212 15.184 100.156 15.792C99.1003 16.4 98.2363 17.296 97.5643 18.48C96.9243 19.632 96.6043 21.008 96.6043 22.608C96.6043 24.208 96.9243 25.616 97.5643 26.832C98.2363 28.016 99.1003 28.928 100.156 29.568C101.244 30.208 102.396 30.528 103.612 30.528C104.86 30.528 106.028 30.224 107.116 29.616C108.204 28.976 109.068 28.08 109.708 26.928C110.348 25.744 110.668 24.336 110.668 22.704ZM135.808 36.432C133.248 36.432 130.944 35.872 128.896 34.752C126.848 33.6 125.232 31.984 124.048 29.904C122.896 27.824 122.32 25.424 122.32 22.704C122.32 19.984 122.912 17.584 124.096 15.504C125.312 13.424 126.96 11.824 129.04 10.704C131.12 9.552 133.44 8.976 136 8.976C138.56 8.976 140.88 9.552 142.96 10.704C145.04 11.824 146.672 13.424 147.856 15.504C149.072 17.584 149.68 19.984 149.68 22.704C149.68 25.424 149.056 27.824 147.807 29.904C146.592 31.984 144.928 33.6 142.816 34.752C140.736 35.872 138.4 36.432 135.808 36.432ZM135.808 30.576C137.024 30.576 138.16 30.288 139.216 29.712C140.304 29.104 141.168 28.208 141.808 27.024C142.448 25.84 142.768 24.4 142.768 22.704C142.768 20.176 142.096 18.24 140.752 16.896C139.44 15.52 137.824 14.832 135.904 14.832C133.984 14.832 132.368 15.52 131.056 16.896C129.776 18.24 129.136 20.176 129.136 22.704C129.136 25.232 129.76 27.184 131.008 28.56C132.288 29.904 133.888 30.576 135.808 30.576ZM187.633 9.024C190.897 9.024 193.521 10.032 195.505 12.048C197.521 14.032 198.529 16.816 198.529 20.4V36H191.809V21.312C191.809 19.232 191.281 17.648 190.225 16.56C189.169 15.44 187.729 14.88 185.905 14.88C184.081 14.88 182.625 15.44 181.537 16.56C180.481 17.648 179.953 19.232 179.953 21.312V36H173.233V21.312C173.233 19.232 172.705 17.648 171.649 16.56C170.593 15.44 169.153 14.88 167.329 14.88C165.473 14.88 164.001 15.44 162.913 16.56C161.857 17.648 161.329 19.232 161.329 21.312V36H154.609V9.408H161.329V12.624C162.193 11.504 163.297 10.624 164.641 9.984C166.017 9.344 167.521 9.024 169.153 9.024C171.233 9.024 173.089 9.472 174.721 10.368C176.353 11.232 177.617 12.48 178.513 14.112C179.377 12.576 180.625 11.344 182.257 10.416C183.921 9.488 185.713 9.024 187.633 9.024ZM229.626 22.128C229.626 23.088 229.562 23.952 229.434 24.72H209.994C210.154 26.64 210.826 28.144 212.01 29.232C213.194 30.32 214.65 30.864 216.378 30.864C218.874 30.864 220.65 29.792 221.706 27.648H228.954C228.186 30.208 226.714 32.32 224.538 33.984C222.362 35.616 219.69 36.432 216.522 36.432C213.962 36.432 211.658 35.872 209.61 34.752C207.594 33.6 206.01 31.984 204.858 29.904C203.738 27.824 203.178 25.424 203.178 22.704C203.178 19.952 203.738 17.536 204.858 15.456C205.978 13.376 207.546 11.776 209.562 10.656C211.578 9.536 213.898 8.976 216.522 8.976C219.05 8.976 221.306 9.52 223.29 10.608C225.306 11.696 226.858 13.248 227.946 15.264C229.066 17.248 229.626 19.536 229.626 22.128ZM222.666 20.208C222.634 18.48 222.01 17.104 220.794 16.08C219.578 15.024 218.09 14.496 216.33 14.496C214.666 14.496 213.258 15.008 212.106 16.032C210.986 17.024 210.298 18.416 210.042 20.208H222.666ZM249.267 9.024C252.435 9.024 254.995 10.032 256.947 12.048C258.899 14.032 259.875 16.816 259.875 20.4V36H253.155V21.312C253.155 19.2 252.627 17.584 251.571 16.464C250.515 15.312 249.075 14.736 247.251 14.736C245.395 14.736 243.923 15.312 242.835 16.464C241.779 17.584 241.251 19.2 241.251 21.312V36H234.531V9.408H241.251V12.72C242.147 11.568 243.283 10.672 244.659 10.032C246.067 9.36 247.603 9.024 249.267 9.024Z" fill="url(#paint0_linear_64_21)"/>
</g>
<defs>
<filter id="filter0_i_64_21" x="0.630875" y="0.47998" width="259.244" height="39.952" filterUnits="userSpaceOnUse" color-interpolation-filters="sRGB">
<feFlood flood-opacity="0" result="BackgroundImageFix"/>
<feBlend mode="normal" in="SourceGraphic" in2="BackgroundImageFix" result="shape"/>
<feColorMatrix in="SourceAlpha" type="matrix" values="0 0 0 0 0 0 0 0 0 0 0 0 0 0 0 0 0 0 127 0" result="hardAlpha"/>
<feOffset dy="4"/>
<feGaussianBlur stdDeviation="2"/>
<feComposite in2="hardAlpha" operator="arithmetic" k2="-1" k3="1"/>
<feColorMatrix type="matrix" values="0 0 0 0 0 0 0 0 0 0 0 0 0 0 0 0 0 0 0.25 0"/>
<feBlend mode="normal" in2="shape" result="effect1_innerShadow_64_21"/>
</filter>
<linearGradient id="paint0_linear_64_21" x1="7.43835" y1="-10.5714" x2="255.724" y2="-58.4829" gradientUnits="userSpaceOnUse">
<stop stop-color="#14D563"/>
<stop offset="1" stop-color="#FFCF23"/>
</linearGradient>
</defs>
</svg>
