<svg width="268" height="45" viewBox="0 0 268 45" fill="none" xmlns="http://www.w3.org/2000/svg">
<g filter="url(#filter0_d_64_25)">
<path d="M31.0789 22.128C31.0789 23.088 31.0149 23.952 30.8869 24.72H11.4469C11.6069 26.64 12.2789 28.144 13.4629 29.232C14.6469 30.32 16.1029 30.864 17.8309 30.864C20.3269 30.864 22.1029 29.792 23.1589 27.648H30.4069C29.6389 30.208 28.1669 32.32 25.9909 33.984C23.8149 35.616 21.1429 36.432 17.9749 36.432C15.4149 36.432 13.1109 35.872 11.0629 34.752C9.04688 33.6 7.46288 31.984 6.31088 29.904C5.19088 27.824 4.63087 25.424 4.63087 22.704C4.63087 19.952 5.19088 17.536 6.31088 15.456C7.43088 13.376 8.99888 11.776 11.0149 10.656C13.0309 9.536 15.3509 8.976 17.9749 8.976C20.5029 8.976 22.7589 9.52 24.7429 10.608C26.7589 11.696 28.3109 13.248 29.3989 15.264C30.5189 17.248 31.0789 19.536 31.0789 22.128ZM24.1189 20.208C24.0869 18.48 23.4629 17.104 22.2469 16.08C21.0309 15.024 19.5429 14.496 17.7829 14.496C16.1189 14.496 14.7109 15.008 13.5589 16.032C12.4389 17.024 11.7509 18.416 11.4949 20.208H24.1189ZM34.2559 22.704C34.2559 19.952 34.8159 17.552 35.9359 15.504C37.0559 13.424 38.6079 11.824 40.5919 10.704C42.5759 9.552 44.8479 8.976 47.4079 8.976C50.7039 8.976 53.4239 9.808 55.5679 11.472C57.7439 13.104 59.1999 15.408 59.9359 18.384H52.6879C52.3039 17.232 51.6479 16.336 50.7199 15.696C49.8239 15.024 48.7039 14.688 47.3599 14.688C45.4399 14.688 43.9199 15.392 42.7999 16.8C41.6799 18.176 41.1199 20.144 41.1199 22.704C41.1199 25.232 41.6799 27.2 42.7999 28.608C43.9199 29.984 45.4399 30.672 47.3599 30.672C50.0799 30.672 51.8559 29.456 52.6879 27.024H59.9359C59.1999 29.904 57.7439 32.192 55.5679 33.888C53.3919 35.584 50.6719 36.432 47.4079 36.432C44.8479 36.432 42.5759 35.872 40.5919 34.752C38.6079 33.6 37.0559 32 35.9359 29.952C34.8159 27.872 34.2559 25.456 34.2559 22.704ZM76.6669 36.432C74.1069 36.432 71.8029 35.872 69.7549 34.752C67.7069 33.6 66.0909 31.984 64.9069 29.904C63.7549 27.824 63.1789 25.424 63.1789 22.704C63.1789 19.984 63.7709 17.584 64.9549 15.504C66.1709 13.424 67.8189 11.824 69.8989 10.704C71.9789 9.552 74.2989 8.976 76.8589 8.976C79.4189 8.976 81.7389 9.552 83.8189 10.704C85.8989 11.824 87.5309 13.424 88.7149 15.504C89.9309 17.584 90.5389 19.984 90.5389 22.704C90.5389 25.424 89.9149 27.824 88.6669 29.904C87.4509 31.984 85.7869 33.6 83.6749 34.752C81.5949 35.872 79.2589 36.432 76.6669 36.432ZM76.6669 30.576C77.8829 30.576 79.0189 30.288 80.0749 29.712C81.1629 29.104 82.0269 28.208 82.6669 27.024C83.3069 25.84 83.6269 24.4 83.6269 22.704C83.6269 20.176 82.9549 18.24 81.6109 16.896C80.2989 15.52 78.6829 14.832 76.7629 14.832C74.8429 14.832 73.2269 15.52 71.9149 16.896C70.6349 18.24 69.9949 20.176 69.9949 22.704C69.9949 25.232 70.6189 27.184 71.8669 28.56C73.1469 29.904 74.7469 30.576 76.6669 30.576ZM93.7402 22.608C93.7402 19.92 94.2682 17.536 95.3242 15.456C96.4123 13.376 97.8843 11.776 99.7403 10.656C101.596 9.536 103.66 8.976 105.932 8.976C107.66 8.976 109.308 9.36 110.876 10.128C112.444 10.864 113.692 11.856 114.62 13.104V0.48H121.436V36H114.62V32.064C113.788 33.376 112.62 34.432 111.116 35.232C109.612 36.032 107.868 36.432 105.884 36.432C103.644 36.432 101.596 35.856 99.7403 34.704C97.8843 33.552 96.4123 31.936 95.3242 29.856C94.2682 27.744 93.7402 25.328 93.7402 22.608ZM114.668 22.704C114.668 21.072 114.348 19.68 113.708 18.528C113.068 17.344 112.204 16.448 111.116 15.84C110.028 15.2 108.86 14.88 107.612 14.88C106.364 14.88 105.212 15.184 104.156 15.792C103.1 16.4 102.236 17.296 101.564 18.48C100.924 19.632 100.604 21.008 100.604 22.608C100.604 24.208 100.924 25.616 101.564 26.832C102.236 28.016 103.1 28.928 104.156 29.568C105.244 30.208 106.396 30.528 107.612 30.528C108.86 30.528 110.028 30.224 111.116 29.616C112.204 28.976 113.068 28.08 113.708 26.928C114.348 25.744 114.668 24.336 114.668 22.704ZM139.808 36.432C137.248 36.432 134.944 35.872 132.896 34.752C130.848 33.6 129.232 31.984 128.048 29.904C126.896 27.824 126.32 25.424 126.32 22.704C126.32 19.984 126.912 17.584 128.096 15.504C129.312 13.424 130.96 11.824 133.04 10.704C135.12 9.552 137.44 8.976 140 8.976C142.56 8.976 144.88 9.552 146.96 10.704C149.04 11.824 150.672 13.424 151.856 15.504C153.072 17.584 153.68 19.984 153.68 22.704C153.68 25.424 153.056 27.824 151.807 29.904C150.592 31.984 148.928 33.6 146.816 34.752C144.736 35.872 142.4 36.432 139.808 36.432ZM139.808 30.576C141.024 30.576 142.16 30.288 143.216 29.712C144.304 29.104 145.168 28.208 145.808 27.024C146.448 25.84 146.768 24.4 146.768 22.704C146.768 20.176 146.096 18.24 144.752 16.896C143.44 15.52 141.824 14.832 139.904 14.832C137.984 14.832 136.368 15.52 135.056 16.896C133.776 18.24 133.136 20.176 133.136 22.704C133.136 25.232 133.76 27.184 135.008 28.56C136.288 29.904 137.888 30.576 139.808 30.576ZM191.633 9.024C194.897 9.024 197.521 10.032 199.505 12.048C201.521 14.032 202.529 16.816 202.529 20.4V36H195.809V21.312C195.809 19.232 195.281 17.648 194.225 16.56C193.169 15.44 191.729 14.88 189.905 14.88C188.081 14.88 186.625 15.44 185.537 16.56C184.481 17.648 183.953 19.232 183.953 21.312V36H177.233V21.312C177.233 19.232 176.705 17.648 175.649 16.56C174.593 15.44 173.153 14.88 171.329 14.88C169.473 14.88 168.001 15.44 166.913 16.56C165.857 17.648 165.329 19.232 165.329 21.312V36H158.609V9.408H165.329V12.624C166.193 11.504 167.297 10.624 168.641 9.984C170.017 9.344 171.521 9.024 173.153 9.024C175.233 9.024 177.089 9.472 178.721 10.368C180.353 11.232 181.617 12.48 182.513 14.112C183.377 12.576 184.625 11.344 186.257 10.416C187.921 9.488 189.713 9.024 191.633 9.024ZM233.626 22.128C233.626 23.088 233.562 23.952 233.434 24.72H213.994C214.154 26.64 214.826 28.144 216.01 29.232C217.194 30.32 218.65 30.864 220.378 30.864C222.874 30.864 224.65 29.792 225.706 27.648H232.954C232.186 30.208 230.714 32.32 228.538 33.984C226.362 35.616 223.69 36.432 220.522 36.432C217.962 36.432 215.658 35.872 213.61 34.752C211.594 33.6 210.01 31.984 208.858 29.904C207.738 27.824 207.178 25.424 207.178 22.704C207.178 19.952 207.738 17.536 208.858 15.456C209.978 13.376 211.546 11.776 213.562 10.656C215.578 9.536 217.898 8.976 220.522 8.976C223.05 8.976 225.306 9.52 227.29 10.608C229.306 11.696 230.858 13.248 231.946 15.264C233.066 17.248 233.626 19.536 233.626 22.128ZM226.666 20.208C226.634 18.48 226.01 17.104 224.794 16.08C223.578 15.024 222.09 14.496 220.33 14.496C218.666 14.496 217.258 15.008 216.106 16.032C214.986 17.024 214.298 18.416 214.042 20.208H226.666ZM253.267 9.024C256.435 9.024 258.995 10.032 260.947 12.048C262.899 14.032 263.875 16.816 263.875 20.4V36H257.155V21.312C257.155 19.2 256.627 17.584 255.571 16.464C254.515 15.312 253.075 14.736 251.251 14.736C249.395 14.736 247.923 15.312 246.835 16.464C245.779 17.584 245.251 19.2 245.251 21.312V36H238.531V9.408H245.251V12.72C246.147 11.568 247.283 10.672 248.659 10.032C250.067 9.36 251.603 9.024 253.267 9.024Z" fill="url(#paint0_linear_64_25)"/>
</g>
<defs>
<filter id="filter0_d_64_25" x="0.630875" y="0.480011" width="267.244" height="43.952" filterUnits="userSpaceOnUse" color-interpolation-filters="sRGB">
<feFlood flood-opacity="0" result="BackgroundImageFix"/>
<feColorMatrix in="SourceAlpha" type="matrix" values="0 0 0 0 0 0 0 0 0 0 0 0 0 0 0 0 0 0 127 0" result="hardAlpha"/>
<feOffset dy="4"/>
<feGaussianBlur stdDeviation="2"/>
<feComposite in2="hardAlpha" operator="out"/>
<feColorMatrix type="matrix" values="0 0 0 0 0 0 0 0 0 0 0 0 0 0 0 0 0 0 0.25 0"/>
<feBlend mode="normal" in2="BackgroundImageFix" result="effect1_dropShadow_64_25"/>
<feBlend mode="normal" in="SourceGraphic" in2="effect1_dropShadow_64_25" result="shape"/>
</filter>
<linearGradient id="paint0_linear_64_25" x1="11.4384" y1="-10.5714" x2="259.724" y2="-58.4829" gradientUnits="userSpaceOnUse">
<stop stop-color="#14D563"/>
<stop offset="1" stop-color="#FFCF23"/>
</linearGradient>
</defs>
</svg>
